<svg version="1.2" baseProfile="tiny-ps" xmlns="http://www.w3.org/2000/svg" viewBox="0 0 16 16"><style></style><g id="Team"><g id="1"><g id="Contacts"><g id="LinkedIn icon"><path id="LinkedIn icon" d="M4.46 1.92c0 .97-.7 1.69-1.89 1.69-1.13 0-1.88-.72-1.88-1.69 0-1 .75-1.71 1.9-1.71s1.85.71 1.87 1.71zM1 16.01V4.99h3.01v11.02H1zM6.02 4.99H8.7l.32 1.12c.45-.71 1.41-1.5 3.23-1.5 2.22 0 3.76 1.29 3.76 4.49v6.88h-3v-6.4c0-1.4-.97-2.35-2.19-2.35-.93 0-1.47.64-1.72 1.26-.09.22-.11.53-.11.84v6.65H6.02V4.99z" fill="#fff"/></g></g></g></g></svg>