<svg version="1.2" baseProfile="tiny-ps" xmlns="http://www.w3.org/2000/svg" viewBox="0 0 16 12"><style></style><g id="Team"><g id="1"><g id="Contacts"><g id="Mail icon"><path id="Mail" d="M.61 1.18c.49.27 6.24 4.01 6.49 4.15.25.14.58.2.9.2.33 0 .66-.06.91-.2s6-3.88 6.49-4.15c.49-.27.95-1.12.05-1.12H.56c-.9 0-.44.85.05 1.12zM15.6 3.24c-.55.3-6.35 3.97-6.69 4.15-.34.18-.58.2-.91.2-.32 0-.56-.02-.9-.2C6.76 7.21.96 3.54.4 3.24c-.39-.21-.38.03-.38.22v7.56c0 .43.55.99.99.99H15c.43 0 .99-.56.99-.99V3.46c0-.19 0-.43-.39-.22z" fill="#fff"/></g></g></g></g></svg>