<svg xmlns="http://www.w3.org/2000/svg" xmlns:xlink="http://www.w3.org/1999/xlink" style="display: none!important"><symbol id="Base"><style/><g id="Team"><g id="1"><g id="Contacts"><g id="Mail icon"><path id="Base" d="M16 0c8.84 0 16 7.16 16 16s-7.16 16-16 16S0 24.84 0 16 7.16 0 16 0z" fill="#bdd1df"/></g></g></g></g></symbol><symbol id="Facebook-Icon" viewBox="0 0 8 15"><style/><g id="Team"><g id="1"><g id="Contacts"><g id="Fb icon"><path id="Facebook Icon" d="M6.98-.06H5.33S2.01-.31 2.01 3.18v1.81H.02V7h1.99l-.03 8.01h3.03V7.03L6.75 7l.63-2.01h-2.4V2.93s-.02-.92 1.05-.92h.94l.01-2.07z" fill="#fff"/></g></g></g></g></symbol><symbol id="LinkedIn-icon" viewBox="0 0 16 16"><style/><g id="Team"><g id="1"><g id="Contacts"><g id="LinkedIn icon"><path id="LinkedIn icon" d="M4.46 1.92c0 .97-.7 1.69-1.89 1.69-1.13 0-1.88-.72-1.88-1.69 0-1 .75-1.71 1.9-1.71s1.85.71 1.87 1.71zM1 16.01V4.99h3.01v11.02H1zM6.02 4.99H8.7l.32 1.12c.45-.71 1.41-1.5 3.23-1.5 2.22 0 3.76 1.29 3.76 4.49v6.88h-3v-6.4c0-1.4-.97-2.35-2.19-2.35-.93 0-1.47.64-1.72 1.26-.09.22-.11.53-.11.84v6.65H6.02V4.99z" fill="#fff"/></g></g></g></g></symbol><symbol id="Mail" viewBox="0 0 16 12"><style/><g id="Team"><g id="1"><g id="Contacts"><g id="Mail icon"><path id="Mail" d="M.61 1.18c.49.27 6.24 4.01 6.49 4.15.25.14.58.2.9.2.33 0 .66-.06.91-.2s6-3.88 6.49-4.15c.49-.27.95-1.12.05-1.12H.56c-.9 0-.44.85.05 1.12zM15.6 3.24c-.55.3-6.35 3.97-6.69 4.15-.34.18-.58.2-.91.2-.32 0-.56-.02-.9-.2C6.76 7.21.96 3.54.4 3.24c-.39-.21-.38.03-.38.22v7.56c0 .43.55.99.99.99H15c.43 0 .99-.56.99-.99V3.46c0-.19 0-.43-.39-.22z" fill="#fff"/></g></g></g></g></symbol><symbol id="Twitter" viewBox="0 0 17 14"><style/><g id="Team"><g id="1"><g id="Contacts"><g id="Twitter icon"><path id="Twitter" d="M16.98 1.66c-.62.28-1.29.47-2 .55.72-.44 1.28-1.13 1.54-1.95-.68.4-1.42.7-2.22.85A3.464 3.464 0 0011.76 0C9.84 0 8.28 1.58 8.28 3.53c0 .28.03.55.09.81A9.827 9.827 0 011.2.64C.9 1.17.73 1.77.73 2.42c0 1.23.61 2.31 1.54 2.94-.57-.01-1.1-.17-1.57-.44v.05c0 1.71 1.2 3.14 2.79 3.46-.29.08-.6.13-.92.13-.22 0-.44-.02-.65-.07.44 1.41 1.73 2.43 3.25 2.46a6.893 6.893 0 01-4.32 1.51c-.29 0-.56-.01-.83-.05A9.68 9.68 0 005.35 14c6.41 0 9.91-5.39 9.91-10.06 0-.15-.01-.3-.01-.45.68-.5 1.27-1.13 1.73-1.83z" fill="#fff"/></g></g></g></g></symbol></svg>