<svg version="1.2" baseProfile="tiny-ps" xmlns="http://www.w3.org/2000/svg" viewBox="0 0 17 14"><style></style><g id="Team"><g id="1"><g id="Contacts"><g id="Twitter icon"><path id="Twitter" d="M16.98 1.66c-.62.28-1.29.47-2 .55.72-.44 1.28-1.13 1.54-1.95-.68.4-1.42.7-2.22.85A3.464 3.464 0 0011.76 0C9.84 0 8.28 1.58 8.28 3.53c0 .28.03.55.09.81A9.827 9.827 0 011.2.64C.9 1.17.73 1.77.73 2.42c0 1.23.61 2.31 1.54 2.94-.57-.01-1.1-.17-1.57-.44v.05c0 1.71 1.2 3.14 2.79 3.46-.29.08-.6.13-.92.13-.22 0-.44-.02-.65-.07.44 1.41 1.73 2.43 3.25 2.46a6.893 6.893 0 01-4.32 1.51c-.29 0-.56-.01-.83-.05A9.68 9.68 0 005.35 14c6.41 0 9.91-5.39 9.91-10.06 0-.15-.01-.3-.01-.45.68-.5 1.27-1.13 1.73-1.83z" fill="#fff"/></g></g></g></g></svg>